<?xml version="1.0" encoding="UTF-8"?>
<svg width="640" height="480" xmlns="http://www.w3.org/2000/svg" xmlns:svg="http://www.w3.org/2000/svg">
 <!-- Created with SVG-edit - http://svg-edit.googlecode.com/ -->
 <defs>
  <linearGradient y2="0.097656" x2="0.861979" y1="0.0625" x1="0.252604" id="svg_6">
   <stop offset="0" stop-color="#e02a76"/>
   <stop offset="1" stop-color="#1fd589"/>
  </linearGradient>
  <linearGradient id="svg_7">
   <stop offset="0" stop-color="#7f00ff"/>
   <stop offset="1" stop-opacity="0.996094" stop-color="#2d3ded"/>
  </linearGradient>
 </defs>
 <g>
  <title>Layer 1</title>
  <text transform="matrix(8.20452, 0, 0, 11.3259, -1447.47, -2444.9)" font-style="italic" font-weight="bold" xml:space="preserve" text-anchor="middle" font-family="Serif" font-size="24" id="svg_1" y="241.63476" x="204.423469" stroke-width="0" stroke="#e02a76" fill="#00007f">SCH</text>
  <path id="svg_2" d="m536.650269,293.19928c-11.52124,-2.980347 -18.19342,-15.213501 -17.406189,-26.303986c-0.295837,-14.498932 1.077759,-29.752029 -6.041626,-43.08075c-4.055267,-9.950027 -10.966949,-18.735428 -13.853149,-29.106506c-3.587921,-16.088806 0.846466,-34.323074 14.205627,-45.121063c15.063965,-12.571854 39.121399,-14.209305 55.706787,-3.527206c11.695313,7.845764 20.135132,20.787766 19.821411,34.905624c1.373108,10.549088 -2.903748,20.476181 -7.933167,29.544418c-3.605713,7.303055 -7.814453,14.446442 -11.085449,21.830978c-0.864563,15.144379 -0.367371,30.420563 -2.705505,45.43158c-3.898804,11.63327 -18.584229,19.542633 -30.70874,15.42691zm30.421326,-27.070801c-6.837769,-3.591705 -16.656677,-1.256714 -24.604736,-2.0354c-6.491821,1.263 -18.02417,-2.588776 -21.472839,3.194244c7.888794,3.002533 17.16272,0.754089 25.563721,1.249969c6.722107,-0.628387 14.457458,0.600037 20.513855,-2.408813zm-0.512268,-6.756989c1.006714,-9.114532 -13.797119,-4.460968 -19.81189,-5.822021c-7.960266,1.57428 -20.62677,-3.355423 -25.632263,3.649536c2.966064,7.038269 16.194946,2.085663 23.142822,3.648407c7.409119,-0.259552 15.093506,0.258911 22.301331,-1.475922l0,0zm0.091614,-15.973984c1.957642,-17.755524 13.105042,-32.536041 19.560303,-48.781235c5.311157,-19.450134 -5.203369,-41.668091 -24.236877,-49.836655c-18.944946,-9.137253 -44.189148,-2.231018 -54.893433,15.679916c-10.318756,14.804459 -8.350403,34.911667 1.731842,49.300262c7.19632,12.573624 12.936005,26.715012 12.000519,41.350845c14.934021,0 29.867737,0 44.801514,0c0.346313,-2.57164 0.692688,-5.135818 1.036133,-7.713135zm-33.062012,-25.156448c-5.913757,-10.01384 -11.988098,-20.108047 -16.108826,-30.969269c3.703308,-4.669281 4.780762,-9.868729 5.93219,-15.357269c10.39563,-1.989807 -1.322815,11.540802 8.492981,11.846298c8.714661,3.689774 4.892761,-17.916702 12.130249,-10.128281c-5.194946,8.549057 10.206604,17.051819 10.772339,4.82518c-0.746216,-9.234451 9.312134,-7.500122 5.390381,0.86998c0.322021,4.306229 7.527649,5.54599 7.651978,9.009995c-5.188965,10.953491 -9.694214,22.264404 -15.836853,32.744553c-1.382324,-4.058212 5.437683,-14.232849 7.616577,-20.211517c4.203247,-5.158737 7.817505,-19.075729 -3.143799,-17.179123c-6.358459,9.656372 -14.910156,-6.087524 -21.135681,3.165421c-5.283813,1.532578 -13.59259,-8.911987 -15.126404,1.135956c3.978455,11.926712 12.261536,22.095108 16.591736,33.901672c-1.46814,-0.847015 -2.30603,-2.323212 -3.226868,-3.653595l0,0zm-8.303101,-43.72081c-2.876892,-1.366653 1.21106,7.268982 0,0l0,0zm17.198853,1.020599c-3.736206,-6.157455 -1.73468,7.470352 0,0zm16.668274,0c-3.735718,-6.157455 -1.731506,7.470352 0,0zm-77.602661,-45.478653c-6.601654,-6.525566 -13.898621,-12.647499 -19.638184,-19.837105c14.342194,11.558937 27.470245,24.581566 40.394531,37.633614c3.433563,4.59375 -5.988403,-4.289505 -7.740936,-5.782761c-4.386932,-3.953903 -8.717682,-7.967026 -13.015411,-12.013748l0,0zm101.93866,18.64978c11.15979,-13.536179 21.570007,-27.729828 33.600525,-40.543671c-2.013489,5.516182 -8.501526,12.116402 -12.57782,17.806984c-6.808899,8.243233 -13.172729,16.965401 -20.957642,24.361397c-0.97467,0.997665 -2.42572,-1.365158 -0.065063,-1.62471l0,0l0,0zm-24.167053,-12.844666c3.854675,-10.733612 9.446533,-20.954399 15.685852,-30.564499c-0.144836,5.331802 -6.761292,15.437553 -9.940125,22.044716c-1.802917,2.662758 -3.318298,6.899834 -5.745728,8.519783zm-49.369171,-13.766373c-2.685028,-3.815285 -10.769226,-12.693375 -9.262543,-13.909561c7.797058,8.416451 15.724426,17.10331 21.322266,27.053635c-4.76886,-3.557449 -8.200195,-8.704597 -12.059723,-13.144073l0,0zm30.865143,-3.002411c-0.544312,-3.580696 1.142761,-20.67849 2.078186,-9.069214c0.005981,7.275787 0.783997,15.46199 -1.296387,22.084961c-0.887939,-4.253387 -0.67511,-8.693001 -0.781799,-13.015747z" stroke-linecap="null" stroke-linejoin="null" stroke-dasharray="null" stroke-width="0" stroke="#e02a76" fill="#00007f"/>
  <path id="svg_3" d="m261.516235,417.397095c-0.07431,-0.019714 -0.117371,-0.1008 -0.112274,-0.174286c-0.001892,-0.0961 0.006958,-0.197113 -0.038971,-0.285431c-0.026184,-0.065948 -0.07077,-0.124146 -0.089386,-0.192841c-0.023163,-0.106628 0.005463,-0.227448 0.091644,-0.298981c0.097198,-0.083313 0.252411,-0.094147 0.359375,-0.023376c0.0755,0.051971 0.129913,0.137726 0.12793,0.231262c0.00885,0.069916 -0.018738,0.135651 -0.051208,0.19577c-0.023254,0.04837 -0.050385,0.095764 -0.071533,0.144653c-0.005524,0.100342 -0.00235,0.201569 -0.017426,0.301025c-0.025177,0.077087 -0.119904,0.129486 -0.198151,0.102203zm0.196259,-0.179382c-0.044067,-0.023773 -0.107452,-0.008301 -0.158691,-0.013428c-0.041901,0.008331 -0.116302,-0.017212 -0.13858,0.021118c0.050934,0.019928 0.110748,0.005035 0.164917,0.00827c0.043396,-0.00412 0.093292,0.003998 0.132355,-0.015961zm-0.003235,-0.044739c0.00647,-0.060425 -0.08905,-0.029602 -0.127838,-0.038544c-0.051361,0.010376 -0.133087,-0.022247 -0.165405,0.024109c0.019135,0.046661 0.104523,0.013824 0.149323,0.0242c0.047791,-0.001709 0.097382,0.001709 0.143921,-0.009766l0,0zm0.00058,-0.105835c0.012573,-0.117645 0.084534,-0.215607 0.12616,-0.323242c0.034302,-0.128845 -0.033539,-0.276062 -0.156342,-0.33017c-0.122253,-0.060608 -0.285126,-0.014832 -0.354187,0.103882c-0.066589,0.098053 -0.053864,0.231293 0.0112,0.32663c0.046417,0.083344 0.083435,0.177002 0.077423,0.273987c0.096375,0 0.192688,0 0.289032,0c0.002228,-0.017059 0.004486,-0.034058 0.006714,-0.051086zm-0.213318,-0.166656c-0.038177,-0.066406 -0.077362,-0.133301 -0.103943,-0.2052c0.023895,-0.030975 0.030853,-0.06543 0.038269,-0.101807c0.067078,-0.013123 -0.008545,0.076477 0.054779,0.078522c0.056244,0.024414 0.031555,-0.118713 0.078278,-0.067108c-0.033539,0.05661 0.065857,0.112946 0.069489,0.031952c-0.004791,-0.061157 0.060089,-0.049713 0.03476,0.005768c0.002106,0.028534 0.048553,0.036743 0.049377,0.059723c-0.033447,0.07251 -0.0625,0.147461 -0.102142,0.216949c-0.008911,-0.026947 0.035065,-0.094299 0.049133,-0.133881c0.0271,-0.034241 0.050385,-0.126465 -0.020294,-0.113861c-0.041016,0.063934 -0.096191,-0.040344 -0.136353,0.020966c-0.034058,0.010162 -0.087738,-0.059052 -0.097595,0.007507c0.025635,0.079041 0.079071,0.146423 0.107056,0.224609c-0.009491,-0.005585 -0.014893,-0.015381 -0.020813,-0.024139l0,0zm-0.053589,-0.289734c-0.018524,-0.009033 0.007843,0.048187 0,0l0,0zm0.110962,0.006775c-0.024109,-0.040771 -0.011169,0.0495 0,0zm0.107513,0c-0.024078,-0.040771 -0.011139,0.0495 0,0zm-0.500641,-0.301361c-0.042572,-0.043213 -0.089661,-0.083771 -0.126709,-0.131409c0.09256,0.076569 0.177216,0.162872 0.26062,0.249329c0.022156,0.030457 -0.038635,-0.028412 -0.049927,-0.0383c-0.028351,-0.026184 -0.056244,-0.052795 -0.083984,-0.07962l0,0zm0.657654,0.123596c0.072021,-0.089691 0.139191,-0.183716 0.216797,-0.268646c-0.013,0.03656 -0.05484,0.080292 -0.081146,0.117981c-0.043915,0.054626 -0.084961,0.112457 -0.135223,0.161438c-0.006287,0.006622 -0.015625,-0.009094 -0.000427,-0.010773l0,0l0,0zm-0.155884,-0.085083c0.024841,-0.071167 0.060974,-0.138885 0.101166,-0.202515c-0.000916,0.035309 -0.04361,0.102234 -0.064117,0.146057c-0.011597,0.017609 -0.021393,0.045715 -0.037048,0.056458zm-0.318512,-0.091248c-0.017365,-0.025269 -0.069489,-0.084137 -0.059753,-0.092133c0.050293,0.055725 0.10141,0.113281 0.137573,0.17923c-0.030792,-0.02359 -0.052948,-0.057678 -0.07782,-0.087097l0,0zm0.199097,-0.019897c-0.003479,-0.023712 0.007385,-0.137024 0.013428,-0.060089c0.000061,0.048218 0.005066,0.102478 -0.008362,0.146362c-0.005768,-0.028229 -0.004333,-0.057587 -0.005066,-0.086273z" stroke-linecap="null" stroke-linejoin="null" stroke-dasharray="null" stroke-width="0" stroke="#e02a76" fill="#00007f"/>
  <path id="svg_5" d="m471.264862,377.945862c-25.157867,-11.32016 -121.766937,-16.941132 -312.200958,-18.163696l-128.77191,-0.824554l0,-9.909241l0,-9.908844l97.194944,0c114.581863,0 196.516449,-2.034515 263.365814,-6.539185c39.448273,-2.661133 52.559662,-4.355682 70.391541,-9.102936l21.911957,-5.836731l62.852051,16.195435l62.853027,16.193451l-63.551331,16.308136l-63.557373,16.305603l-10.487762,-4.717438z" stroke-linecap="null" stroke-linejoin="null" stroke-dasharray="null" stroke-width="0" stroke="url(#svg_6)" fill="url(#svg_7)"/>
  <path transform="translate(133,42) scale(0.005) translate(-133,-42)" id="svg_8" d="m143.404678,206.207825c-0.49527,-8.518433 -1.609192,-23.178131 -13.918259,-16.106979c-5.696136,2.119781 -22.798416,7.512451 -14.529297,-3.629791c-4.532433,-11.102188 -22.974762,5.422943 -24.244194,-2.292038c9.919434,-10.649063 -4.781296,-22.35199 -15.171387,-14.803223c-6.39341,1.761673 -19.427601,12.91188 -21.978901,9.375519c5.937927,-7.525146 19.313122,-22.931656 3.181118,-27.550842c-17.530201,-3.975891 -32.933189,8.093918 -48.177099,14.682053c-4.57452,3.57106 -10.39707,2.948624 -4.70683,-2.995972c19.7419,-30.641113 50.726459,-53.708557 85.105662,-65.430763c8.333687,-2.708115 21.165108,-8.704239 21.416557,4.975365c5.15313,12.590065 8.819473,28.330963 22.089767,34.809174c15.283615,8.497009 4.327927,-24.527115 20.16156,-12.052414c6.663788,4.322067 20.922684,-3.916969 22.87738,0.712646c-3.882584,5.555786 -5.704575,15.418839 4.553818,10.348907c17.814056,-7.007813 30.89859,-22.70472 39.670258,-39.223183c9.162781,-1.376801 18.273346,5.561615 26.627975,9.247528c27.745285,15.709541 44.865707,45.394478 52.137283,75.657677c-7.5513,-4.245575 -14.871857,-12.828003 -24.021851,-16.202728c-9.755341,-4.874191 -20.757889,-5.733627 -31.48114,-5.398666c-5.025543,5.989853 -7.99353,13.425583 -3.62529,20.867081c3.802841,14.254059 -12.13176,-4.905762 -17.884979,-6.207443c-10.741913,-7.67955 -21.033234,3.922134 -18.676346,14.82222c-2.429092,2.10051 -9.920853,-3.521805 -14.322632,-2.869263c-9.050262,-2.726059 -15.424683,1.200851 -9.97261,10.613312c-7.983154,-0.974167 -19.644745,-13.282913 -26.704941,-1.693634c-3.077896,2.895142 -4.663757,8.663071 -8.405609,10.345474l-0.000015,-0.000015z" opacity="0.5" stroke-linecap="null" stroke-linejoin="null" stroke-dasharray="null" stroke-width="0" stroke="url(#svg_6)" fill="url(#svg_7)"/>
  <path transform="translate(143,20) scale(0.005) translate(-143,-20)" id="svg_9" d="m143.404678,206.207825c-0.49527,-8.518433 -1.609192,-23.178131 -13.918259,-16.106979c-5.696136,2.119781 -22.798416,7.512451 -14.529297,-3.629791c-4.532433,-11.102188 -22.974762,5.422943 -24.244194,-2.292038c9.919434,-10.649063 -4.781296,-22.35199 -15.171387,-14.803223c-6.39341,1.761673 -19.427601,12.91188 -21.978901,9.375519c5.937927,-7.525146 19.313122,-22.931656 3.181118,-27.550842c-17.530201,-3.975891 -32.933189,8.093918 -48.177099,14.682053c-4.57452,3.57106 -10.39707,2.948624 -4.70683,-2.995972c19.7419,-30.641113 50.726459,-53.708557 85.105662,-65.430763c8.333687,-2.708115 21.165108,-8.704239 21.416557,4.975365c5.15313,12.590065 8.819473,28.330963 22.089767,34.809174c15.283615,8.497009 4.327927,-24.527115 20.16156,-12.052414c6.663788,4.322067 20.922684,-3.916969 22.87738,0.712646c-3.882584,5.555786 -5.704575,15.418839 4.553818,10.348907c17.814056,-7.007813 30.89859,-22.70472 39.670258,-39.223183c9.162781,-1.376801 18.273346,5.561615 26.627975,9.247528c27.745285,15.709541 44.865707,45.394478 52.137283,75.657677c-7.5513,-4.245575 -14.871857,-12.828003 -24.021851,-16.202728c-9.755341,-4.874191 -20.757889,-5.733627 -31.48114,-5.398666c-5.025543,5.989853 -7.99353,13.425583 -3.62529,20.867081c3.802841,14.254059 -12.13176,-4.905762 -17.884979,-6.207443c-10.741913,-7.67955 -21.033234,3.922134 -18.676346,14.82222c-2.429092,2.10051 -9.920853,-3.521805 -14.322632,-2.869263c-9.050262,-2.726059 -15.424683,1.200851 -9.97261,10.613312c-7.983154,-0.974167 -19.644745,-13.282913 -26.704941,-1.693634c-3.077896,2.895142 -4.663757,8.663071 -8.405609,10.345474l-0.000015,-0.000015z" opacity="0.5" stroke-linecap="null" stroke-linejoin="null" stroke-dasharray="null" stroke-width="0" stroke="url(#svg_6)" fill="url(#svg_7)"/>
  <path transform="translate(201,17) scale(0.005) translate(-201,-17)" id="svg_10" d="m143.404678,206.207825c-0.49527,-8.518433 -1.609192,-23.178131 -13.918259,-16.106979c-5.696136,2.119781 -22.798416,7.512451 -14.529297,-3.629791c-4.532433,-11.102188 -22.974762,5.422943 -24.244194,-2.292038c9.919434,-10.649063 -4.781296,-22.35199 -15.171387,-14.803223c-6.39341,1.761673 -19.427601,12.91188 -21.978901,9.375519c5.937927,-7.525146 19.313122,-22.931656 3.181118,-27.550842c-17.530201,-3.975891 -32.933189,8.093918 -48.177099,14.682053c-4.57452,3.57106 -10.39707,2.948624 -4.70683,-2.995972c19.7419,-30.641113 50.726459,-53.708557 85.105662,-65.430763c8.333687,-2.708115 21.165108,-8.704239 21.416557,4.975365c5.15313,12.590065 8.819473,28.330963 22.089767,34.809174c15.283615,8.497009 4.327927,-24.527115 20.16156,-12.052414c6.663788,4.322067 20.922684,-3.916969 22.87738,0.712646c-3.882584,5.555786 -5.704575,15.418839 4.553818,10.348907c17.814056,-7.007813 30.89859,-22.70472 39.670258,-39.223183c9.162781,-1.376801 18.273346,5.561615 26.627975,9.247528c27.745285,15.709541 44.865707,45.394478 52.137283,75.657677c-7.5513,-4.245575 -14.871857,-12.828003 -24.021851,-16.202728c-9.755341,-4.874191 -20.757889,-5.733627 -31.48114,-5.398666c-5.025543,5.989853 -7.99353,13.425583 -3.62529,20.867081c3.802841,14.254059 -12.13176,-4.905762 -17.884979,-6.207443c-10.741913,-7.67955 -21.033234,3.922134 -18.676346,14.82222c-2.429092,2.10051 -9.920853,-3.521805 -14.322632,-2.869263c-9.050262,-2.726059 -15.424683,1.200851 -9.97261,10.613312c-7.983154,-0.974167 -19.644745,-13.282913 -26.704941,-1.693634c-3.077896,2.895142 -4.663757,8.663071 -8.405609,10.345474l-0.000015,-0.000015z" opacity="0.5" stroke-linecap="null" stroke-linejoin="null" stroke-dasharray="null" stroke-width="0" stroke="url(#svg_6)" fill="url(#svg_7)"/>
  <path transform="translate(43,30) scale(0.005) translate(-43,-30)" id="svg_11" d="m7.868202,151.620193l82.343018,0l11.393402,-32.392784l18.643684,62.356071l20.71521,-63.165901l18.12587,62.356071l19.679459,-61.546242l19.679443,61.951149l10.875488,-30.368195l82.860886,0m-291.186554,-2.813812l6.844604,0l0,6.844635l-6.844604,0l0,-6.844635zm291.194061,-0.465622l6.844604,0l0,6.844635l-6.844604,0l0,-6.844635z" opacity="0.5" stroke-linecap="null" stroke-linejoin="null" stroke-dasharray="null" stroke-width="0" stroke="url(#svg_6)" fill="url(#svg_7)"/>
  <path transform="translate(170,35) scale(0.005) translate(-170,-35)" id="svg_12" d="m7.868202,151.620193l82.343018,0l11.393402,-32.392784l18.643684,62.356071l20.71521,-63.165901l18.12587,62.356071l19.679459,-61.546242l19.679443,61.951149l10.875488,-30.368195l82.860886,0m-291.186554,-2.813812l6.844604,0l0,6.844635l-6.844604,0l0,-6.844635zm291.194061,-0.465622l6.844604,0l0,6.844635l-6.844604,0l0,-6.844635z" opacity="0.5" stroke-linecap="null" stroke-linejoin="null" stroke-dasharray="null" stroke-width="0" stroke="url(#svg_6)" fill="url(#svg_7)"/>
  <path transform="translate(269,70) scale(0.005) translate(-269,-70)" id="svg_13" d="m7.868202,151.620193l82.343018,0l11.393402,-32.392784l18.643684,62.356071l20.71521,-63.165901l18.12587,62.356071l19.679459,-61.546242l19.679443,61.951149l10.875488,-30.368195l82.860886,0m-291.186554,-2.813812l6.844604,0l0,6.844635l-6.844604,0l0,-6.844635zm291.194061,-0.465622l6.844604,0l0,6.844635l-6.844604,0l0,-6.844635z" opacity="0.5" stroke-linecap="null" stroke-linejoin="null" stroke-dasharray="null" stroke-width="0" stroke="url(#svg_6)" fill="url(#svg_7)"/>
  <path transform="translate(165,465) scale(0.005) translate(-165,-465)" id="svg_14" d="m7.868202,151.620193l82.343018,0l11.393402,-32.392784l18.643684,62.356071l20.71521,-63.165901l18.12587,62.356071l19.679459,-61.546242l19.679443,61.951149l10.875488,-30.368195l82.860886,0m-291.186554,-2.813812l6.844604,0l0,6.844635l-6.844604,0l0,-6.844635zm291.194061,-0.465622l6.844604,0l0,6.844635l-6.844604,0l0,-6.844635z" opacity="0.5" stroke-linecap="null" stroke-linejoin="null" stroke-dasharray="null" stroke-width="0" stroke="url(#svg_6)" fill="url(#svg_7)"/>
  <path transform="translate(170,447) scale(0.005) translate(-170,-447)" id="svg_15" d="m7.868202,151.620193l82.343018,0l11.393402,-32.392784l18.643684,62.356071l20.71521,-63.165901l18.12587,62.356071l19.679459,-61.546242l19.679443,61.951149l10.875488,-30.368195l82.860886,0m-291.186554,-2.813812l6.844604,0l0,6.844635l-6.844604,0l0,-6.844635zm291.194061,-0.465622l6.844604,0l0,6.844635l-6.844604,0l0,-6.844635z" opacity="0.5" stroke-linecap="null" stroke-linejoin="null" stroke-dasharray="null" stroke-width="0" stroke="url(#svg_6)" fill="url(#svg_7)"/>
  <path transform="translate(170,447) scale(0.005) translate(-170,-447)" id="svg_16" d="m7.868202,151.620193l82.343018,0l11.393402,-32.392784l18.643684,62.356071l20.71521,-63.165901l18.12587,62.356071l19.679459,-61.546242l19.679443,61.951149l10.875488,-30.368195l82.860886,0m-291.186554,-2.813812l6.844604,0l0,6.844635l-6.844604,0l0,-6.844635zm291.194061,-0.465622l6.844604,0l0,6.844635l-6.844604,0l0,-6.844635z" opacity="0.5" stroke-linecap="null" stroke-linejoin="null" stroke-dasharray="null" stroke-width="0" stroke="url(#svg_6)" fill="url(#svg_7)"/>
  <path transform="translate(170,447) scale(0.005) translate(-170,-447)" id="svg_17" d="m7.868202,151.620193l82.343018,0l11.393402,-32.392784l18.643684,62.356071l20.71521,-63.165901l18.12587,62.356071l19.679459,-61.546242l19.679443,61.951149l10.875488,-30.368195l82.860886,0m-291.186554,-2.813812l6.844604,0l0,6.844635l-6.844604,0l0,-6.844635zm291.194061,-0.465622l6.844604,0l0,6.844635l-6.844604,0l0,-6.844635z" opacity="0.5" stroke-linecap="null" stroke-linejoin="null" stroke-dasharray="null" stroke-width="0" stroke="url(#svg_6)" fill="url(#svg_7)"/>
  <path transform="translate(170,447) scale(0.005) translate(-170,-447)" id="svg_18" d="m7.868202,151.620193l82.343018,0l11.393402,-32.392784l18.643684,62.356071l20.71521,-63.165901l18.12587,62.356071l19.679459,-61.546242l19.679443,61.951149l10.875488,-30.368195l82.860886,0m-291.186554,-2.813812l6.844604,0l0,6.844635l-6.844604,0l0,-6.844635zm291.194061,-0.465622l6.844604,0l0,6.844635l-6.844604,0l0,-6.844635z" opacity="0.5" stroke-linecap="null" stroke-linejoin="null" stroke-dasharray="null" stroke-width="0" stroke="url(#svg_6)" fill="url(#svg_7)"/>
  <path transform="translate(170,447) scale(0.005) translate(-170,-447)" id="svg_19" d="m7.868202,151.620193l82.343018,0l11.393402,-32.392784l18.643684,62.356071l20.71521,-63.165901l18.12587,62.356071l19.679459,-61.546242l19.679443,61.951149l10.875488,-30.368195l82.860886,0m-291.186554,-2.813812l6.844604,0l0,6.844635l-6.844604,0l0,-6.844635zm291.194061,-0.465622l6.844604,0l0,6.844635l-6.844604,0l0,-6.844635z" opacity="0.5" stroke-linecap="null" stroke-linejoin="null" stroke-dasharray="null" stroke-width="0" stroke="url(#svg_6)" fill="url(#svg_7)"/>
  <path id="svg_21" d="m322.982239,10.821441c-29.638184,0 -53.66684,19.699876 -53.66684,44.000333c0,8.299427 2.836823,16.061771 7.726807,22.68597l-7.726807,18.523468l21.513519,-6.035942c8.966919,5.514809 20.074707,8.823685 32.15332,8.823685c29.638245,0 53.667053,-19.696777 53.667053,-43.997181s-24.028809,-44.000333 -53.667053,-44.000333zm-8.803101,60.896501l-8.96106,9.789276l-24.648773,-26.950809l24.642853,-26.950718l8.96698,9.808411l-15.681885,17.142307l15.681885,17.161533zm27.105408,9.776497l-8.9552,-9.802055l15.681885,-17.139175l-15.681885,-17.145485l8.9552,-9.802032l24.648804,26.925171l-24.648804,26.963577z" stroke-linecap="null" stroke-linejoin="null" stroke-dasharray="null" stroke-width="0" stroke="#e02a76" fill="#00007f"/>
 </g>
</svg>
